<svg width="19" height="18" viewBox="0 0 19 18" fill="none" xmlns="http://www.w3.org/2000/svg">
<path d="M13.0518 0.296631H5.94673C3.0001 0.296631 0.601562 2.6178 0.601562 5.46937V12.3453C0.601562 15.1969 3.0001 17.518 5.94673 17.518H13.0518C15.9985 17.518 18.397 15.1969 18.397 12.3453V5.46937C18.392 2.6178 15.9985 0.296631 13.0518 0.296631ZM9.5722 13.1482C7.15857 13.1482 5.19247 11.2455 5.19247 8.90976C5.19247 6.574 7.15857 4.67132 9.5722 4.67132C11.9858 4.67132 13.9519 6.574 13.9519 8.90976C13.9519 11.2455 11.9858 13.1482 9.5722 13.1482ZM14.2084 5.39151C13.6301 5.39151 13.1675 4.93896 13.1675 4.38422C13.1675 3.82461 13.6351 3.37692 14.2084 3.37692C14.7866 3.37692 15.2492 3.82947 15.2492 4.38422C15.2543 4.93896 14.7866 5.39151 14.2084 5.39151Z" fill="#676767"/>
<path d="M9.57146 6.1897C8.02272 6.1897 6.76562 7.40624 6.76562 8.90502C6.76562 10.4038 8.02272 11.6204 9.57146 11.6204C11.1202 11.6204 12.3773 10.4038 12.3773 8.90502C12.3773 7.41111 11.1202 6.1897 9.57146 6.1897Z" fill="#676767"/>
</svg>
