<svg width="15" height="18" viewBox="0 0 15 18" fill="none" xmlns="http://www.w3.org/2000/svg">
<path fill-rule="evenodd" clip-rule="evenodd" d="M6.33626 11.5859C6.32083 11.6357 6.30539 11.6805 6.2951 11.7204C5.62629 14.2546 5.55426 14.8172 4.86486 15.9971C4.5356 16.5548 4.17032 17.0875 3.75874 17.5953C3.71244 17.6551 3.67128 17.7248 3.57867 17.7099C3.47578 17.6899 3.47063 17.6003 3.46034 17.5256C3.35231 16.7539 3.29057 15.9822 3.31629 15.2055C3.35231 14.1948 3.48092 13.8463 4.82885 8.35469C4.84943 8.27005 4.82885 8.20035 4.79798 8.12567C4.47386 7.28426 4.41212 6.4279 4.69509 5.55661C5.30731 3.68458 7.49898 3.5402 7.88483 5.08363C8.12149 6.03956 7.49383 7.28923 7.01537 9.14134C6.61922 10.6649 8.47134 11.7502 10.0611 10.64C11.5222 9.61433 12.0932 7.14982 11.9852 5.40725C11.7743 1.92707 7.83339 1.17527 5.33303 2.2955C2.46741 3.58003 1.81402 7.0154 3.1105 8.5887C3.27513 8.78785 3.39861 8.91232 3.34716 9.11147C3.26484 9.42513 3.18767 9.74377 3.10021 10.0574C3.03333 10.2914 2.83268 10.3761 2.59088 10.2815C2.11242 10.0973 1.71627 9.79854 1.39215 9.41518C0.291177 8.0958 -0.0226532 5.49189 1.43331 3.28628C3.04362 0.841694 6.03787 -0.144112 8.77488 0.154616C12.0418 0.513089 14.1048 2.67389 14.4907 5.12346C14.6656 6.23871 14.5421 8.99198 12.9215 10.9387C11.0591 13.1742 8.03918 13.3235 6.65009 11.9494C6.52662 11.8349 6.4443 11.7104 6.33626 11.5859Z" fill="#676767"/>
</svg>
