<svg width="21" height="18" viewBox="0 0 21 18" fill="none" xmlns="http://www.w3.org/2000/svg">
<path d="M20.7431 2.64998C20.0844 2.93846 19.3632 3.11062 18.6517 3.22694C18.9882 3.1711 19.4834 2.58483 19.6806 2.34288C19.9835 1.97995 20.2335 1.56584 20.3729 1.11916C20.3922 1.08194 20.4066 1.04006 20.3681 1.01215C20.3248 0.993535 20.2912 1.00284 20.2575 1.02145C19.469 1.43091 18.6517 1.7287 17.7814 1.93808C17.7093 1.95669 17.6564 1.93808 17.6083 1.8962C17.5362 1.8171 17.4689 1.74265 17.3919 1.68217C17.0265 1.37973 16.6323 1.14243 16.1899 0.970269C15.6082 0.742275 14.9735 0.644562 14.3485 0.681786C13.7378 0.719009 13.1417 0.886518 12.6032 1.16104C12.0598 1.43556 11.579 1.8171 11.1944 2.27309C10.7953 2.74769 10.502 3.31069 10.353 3.90627C10.2088 4.47858 10.2184 5.04624 10.3097 5.62785C10.3241 5.72556 10.3145 5.73487 10.2232 5.72556C6.81909 5.23701 3.99678 4.05516 1.70816 1.53327C1.60719 1.4216 1.5543 1.4216 1.47257 1.54258C0.472497 2.9943 0.958108 5.33007 2.20819 6.47934C2.37648 6.63289 2.54476 6.78643 2.73227 6.92602C2.66496 6.93998 1.83317 6.85157 1.08792 6.47934C0.986956 6.41885 0.938875 6.45142 0.929259 6.56309C0.919643 6.72129 0.934067 6.86553 0.958107 7.03304C1.15043 8.50802 2.20339 9.87132 3.6506 10.4018C3.82369 10.4716 4.01121 10.532 4.19872 10.5646C3.87177 10.6344 3.5304 10.6856 2.58803 10.6111C2.47264 10.5879 2.42456 10.6484 2.47264 10.7554C3.17942 12.6259 4.71318 13.1842 5.85749 13.5006C6.01135 13.5285 6.1652 13.5285 6.31906 13.5611C6.30944 13.5751 6.29983 13.5751 6.29021 13.589C5.91038 14.152 4.59298 14.5661 3.97755 14.7755C2.86209 15.1524 1.64566 15.3246 0.467689 15.2129C0.280175 15.185 0.236903 15.1896 0.188823 15.2129C0.135935 15.2455 0.184015 15.2873 0.241711 15.3339C0.482113 15.4874 0.722514 15.6223 0.972532 15.7526C1.72258 16.1388 2.50148 16.4413 3.31885 16.6599C7.5403 17.786 12.2906 16.9577 15.4591 13.9147C17.9449 11.5231 18.8199 8.22419 18.8199 4.92061C18.8199 4.79032 18.9786 4.72053 19.07 4.65074C19.719 4.18079 20.2383 3.61779 20.7239 2.98964C20.8345 2.85005 20.8345 2.72443 20.8345 2.67324C20.8345 2.66394 20.8345 2.65463 20.8345 2.65463C20.8297 2.5988 20.8249 2.61275 20.7431 2.64998Z" fill="white"/>
</svg>
